<?xml version="1.0" encoding="UTF-8"?>
<svg id="_Слой_1" data-name="Слой_1" xmlns="http://www.w3.org/2000/svg" version="1.1" viewBox="0 0 566.93 566.93">
  <!-- Generator: Adobe Illustrator 29.5.1, SVG Export Plug-In . SVG Version: 2.1.0 Build 141)  -->
  <defs>
    <style>
      .st0 {
        fill: #1753a9;
      }
    </style>
  </defs>
  <polygon class="st0" points="128.96 356.03 153.21 194.38 170.89 194.38 176.79 251.62 231.18 197.99 291.55 257.23 316.48 234.6 437.99 356.03 373.11 356.03 317.44 263.72 287.16 312.82 229.23 221.53 202.27 266.36 296.08 356.03 229.9 356.03 188.82 289.18 182.11 300.31 187.39 356.03 128.96 356.03"/>
  <g>
    <path class="st0" d="M134.23,368.37h-1.92v4.83h-3.32v-11.82h3.32v4.73h1.52l3.94-4.73h4.05l-4.97,5.59,5.49,6.22h-3.96l-4.15-4.83Z"/>
    <path class="st0" d="M156.52,367.56c0,1.16-.28,2.18-.84,3.06-.56.88-1.36,1.55-2.41,2.03-1.04.48-2.24.71-3.59.71s-2.53-.24-3.58-.71c-1.05-.47-1.86-1.14-2.44-2.02-.58-.87-.87-1.88-.87-3.01v-.58c0-1.16.29-2.19.86-3.07.57-.88,1.38-1.56,2.42-2.04,1.04-.47,2.24-.71,3.58-.71s2.54.24,3.58.71c1.04.47,1.85,1.15,2.42,2.04.57.88.86,1.91.86,3.06v.53ZM153.15,367.02c0-1.24-.3-2.18-.91-2.82-.61-.64-1.47-.97-2.59-.97s-1.97.32-2.58.95c-.61.64-.91,1.57-.92,2.8v.58c0,1.21.3,2.14.91,2.81.61.67,1.48,1,2.61,1s1.97-.32,2.57-.96.9-1.58.91-2.8v-.58Z"/>
    <path class="st0" d="M171.58,369.26c-.13,1.27-.77,2.27-1.92,3-1.16.73-2.68,1.1-4.57,1.1-2.07,0-3.69-.51-4.88-1.53-1.18-1.02-1.78-2.42-1.78-4.2v-.72c0-1.14.27-2.14.82-3,.55-.87,1.33-1.53,2.34-1.99,1.01-.46,2.19-.69,3.54-.69,1.86,0,3.36.37,4.49,1.1,1.14.73,1.79,1.76,1.97,3.08h-3.32c-.08-.76-.37-1.32-.87-1.66-.5-.34-1.26-.52-2.27-.52-1.11,0-1.94.29-2.49.87-.55.58-.83,1.48-.85,2.71v.89c0,1.28.26,2.21.79,2.8.53.59,1.36.88,2.5.88,1.03,0,1.79-.17,2.3-.52.51-.34.8-.87.87-1.59h3.32Z"/>
    <path class="st0" d="M185.57,363.35h-4.94v9.84h-3.32v-9.84h-4.87v-1.97h13.13v1.97Z"/>
    <path class="st0" d="M195.24,370.76h-5.82l-1.11,2.43h-3.53l6-11.82h3.08l6.03,11.82h-3.53l-1.12-2.43ZM190.31,368.79h4.03l-2.03-4.42-2,4.42Z"/>
    <path class="st0" d="M214.51,373.2h-3.32v-5.06h-6.48v5.06h-3.32v-11.82h3.32v4.79h6.48v-4.79h3.32v11.82Z"/>
    <path class="st0" d="M226.71,370.76h-5.82l-1.11,2.43h-3.53l6-11.82h3.08l6.03,11.82h-3.53l-1.12-2.43ZM221.78,368.79h4.03l-2.03-4.42-2,4.42Z"/>
    <path class="st0" d="M242.53,361.38h3.33v11.82h-3.33v-7.85l-6.45,7.85h-3.32v-11.82h3.32v7.86l6.45-7.86ZM243.17,358.28c0,.72-.35,1.3-1.06,1.74s-1.63.66-2.77.66-2.07-.22-2.77-.65c-.7-.44-1.06-1.02-1.06-1.75h2.27c0,.34.14.6.42.79.28.19.66.28,1.15.28s.86-.09,1.13-.28c.27-.19.41-.45.41-.79h2.29Z"/>
    <path class="st0" d="M261.39,369.26c-.13,1.27-.77,2.27-1.92,3-1.16.73-2.68,1.1-4.57,1.1-2.07,0-3.69-.51-4.88-1.53-1.18-1.02-1.78-2.42-1.78-4.2v-.72c0-1.14.27-2.14.82-3,.55-.87,1.33-1.53,2.34-1.99,1.01-.46,2.19-.69,3.54-.69,1.86,0,3.36.37,4.49,1.1,1.14.73,1.79,1.76,1.97,3.08h-3.32c-.08-.76-.37-1.32-.87-1.66-.5-.34-1.26-.52-2.27-.52-1.11,0-1.94.29-2.49.87-.55.58-.83,1.48-.85,2.71v.89c0,1.28.26,2.21.79,2.8.53.59,1.36.88,2.5.88,1.03,0,1.79-.17,2.3-.52.51-.34.8-.87.87-1.59h3.32Z"/>
    <path class="st0" d="M268.83,368.37h-1.92v4.83h-3.32v-11.82h3.32v4.73h1.52l3.94-4.73h4.05l-4.97,5.59,5.49,6.22h-3.96l-4.15-4.83Z"/>
    <path class="st0" d="M287.88,361.38h3.33v11.82h-3.33v-7.85l-6.45,7.85h-3.32v-11.82h3.32v7.86l6.45-7.86Z"/>
    <path class="st0" d="M303.79,368.07h-6.38v3.17h7.48v1.96h-10.8v-11.82h10.78v1.97h-7.46v2.82h6.38v1.91Z"/>
    <path class="st0" d="M316.83,361.38l4.14,8.57,4.12-8.57h4.36v11.82h-3.33v-3.23l.33-5.58-4.35,8.81h-2.28l-4.34-8.8.33,5.57v3.23h-3.32v-11.82h4.34Z"/>
    <path class="st0" d="M342.02,361.38h3.33v11.82h-3.33v-7.85l-6.45,7.85h-3.32v-11.82h3.32v7.86l6.45-7.86Z"/>
    <path class="st0" d="M361.34,373.2h-3.32v-5.06h-6.48v5.06h-3.32v-11.82h3.32v4.79h6.48v-4.79h3.32v11.82Z"/>
    <path class="st0" d="M373.94,368.07h-6.38v3.17h7.48v1.96h-10.8v-11.82h10.78v1.97h-7.46v2.82h6.38v1.91Z"/>
    <path class="st0" d="M380.32,369.03v4.16h-3.32v-11.82h6.29c1.21,0,2.27.16,3.19.49.92.32,1.63.79,2.12,1.38.49.6.74,1.28.74,2.04,0,1.16-.54,2.07-1.62,2.74-1.08.67-2.58,1-4.49,1h-2.91ZM380.32,367.06h2.97c.88,0,1.55-.15,2.01-.45.46-.3.69-.74.69-1.3s-.23-1.05-.7-1.4c-.47-.36-1.11-.54-1.93-.55h-3.04v3.71Z"/>
    <path class="st0" d="M398.75,370.76h-5.82l-1.11,2.43h-3.53l6-11.82h3.08l6.03,11.82h-3.53l-1.12-2.43ZM393.82,368.79h4.03l-2.03-4.42-2,4.42Z"/>
    <path class="st0" d="M418.2,361.38v11.82h-3.33v-9.84h-4.3l-.27,4.17c-.11,1.41-.35,2.51-.73,3.32-.38.81-.93,1.4-1.65,1.78-.72.38-1.71.57-2.97.57h-.86v-1.96l.55-.04c.83-.08,1.43-.43,1.79-1.06.36-.62.58-1.74.68-3.34l.28-5.42h10.8Z"/>
    <path class="st0" d="M424.48,365.64h2.59c1.9,0,3.4.34,4.51,1.01,1.11.67,1.67,1.58,1.67,2.72s-.55,2.07-1.66,2.76c-1.1.7-2.57,1.05-4.4,1.06h-6.06v-11.82h3.34v4.26ZM424.48,367.6v3.64h2.65c.85,0,1.53-.17,2.03-.51.51-.34.76-.8.76-1.37,0-.54-.24-.96-.73-1.27-.48-.31-1.15-.47-1.99-.48h-2.72ZM437.95,373.2h-3.32v-11.82h3.32v11.82Z"/>
  </g>
</svg>